<svg width="660" height="292" viewBox="0 0 660 292" fill="none" xmlns="http://www.w3.org/2000/svg">
<path d="M437.022 288.444C436.923 288.353 436.859 288.276 436.829 288.213C436.732 288.091 436.65 287.978 436.571 287.871L436.282 287.823C429.78 286.733 416.414 284.491 409.839 281.575C407.846 280.461 407.706 277.209 407.37 275.717C404.609 261.194 402.836 246.47 400.764 231.905C400.739 231.728 400.782 231.57 400.898 231.418C401.026 231.308 401.178 231.229 401.361 231.229H407.614L408.169 231.655C408.169 231.655 409.955 236.989 411.6 240.893C415.141 249.186 419.853 258.302 426.197 264.641C435.205 273.708 449.528 280.765 463.174 280.753C469.952 280.753 476.559 279.012 482.3 274.938C490.79 268.952 495.325 258.265 495.428 248.06V247.725C495.446 235.272 486.743 225.742 477.388 218.094C464.692 207.73 449.321 200.49 435.461 191.539C419.2 181.041 406.804 167.364 406.054 146.929C406.042 146.411 406.017 145.906 406.017 145.388C406.017 124.764 421.035 106.465 440.672 100.93C447.59 98.9632 455.038 98.1168 462.498 98.1168C476.778 98.1168 491.101 101.228 502.017 105.765C504.717 106.94 509.032 108.426 509.989 111.69C511.592 117.584 512.701 125.756 513.67 131.906L513.703 132.122C514.978 140.423 516.25 148.706 517.217 157.073C517.241 157.232 517.193 157.408 517.065 157.536C516.949 157.664 516.784 157.731 516.632 157.731C512.957 157.731 510.397 157.579 510.36 157.579L509.824 157.134C509.824 157.11 507.99 150.022 506.472 146.18C501.809 134.275 496.672 124.648 486.06 117.195C479.655 112.682 470.519 110.149 461.559 110.149C446.584 110.18 432.213 117.091 430.781 133.173C430.695 134.025 430.653 134.86 430.653 135.676C430.598 153.365 448.181 163.814 462.346 172.577C475.852 180.943 489.955 189.06 502.267 199.205C515.724 210.233 523.654 223.769 523.653 239.614C523.659 244.534 522.897 249.667 521.313 255.02C514.816 276.716 492.85 288.846 471.543 290.648C470.293 290.758 469.007 290.806 467.727 290.806C461.718 290.8 455.446 289.771 449.656 289.004C452.371 292.154 436.135 286.772 436.829 288.213C436.887 288.287 436.95 288.363 437.022 288.444Z" fill="url(#paint0_linear)"/>
<path d="M384.722 165.982L384.722 165.994L384.728 166.049C386.897 175.481 387.97 184.688 387.97 193.962C387.97 200.904 387.379 207.858 386.197 214.995C378.797 259.24 337.664 289.54 294.817 289.54C284.407 289.54 273.912 287.75 263.77 283.968C225.239 269.549 202.761 233.232 202.761 193.938C202.761 187.386 203.401 180.73 204.675 174.099C208.978 151.891 219.303 133.624 236.008 118.291C252.306 103.305 273.431 96.1926 294.707 96.1926C335.658 96.217 376.932 126.986 384.722 165.933V165.982Z" fill="url(#paint1_linear)"/>
<path d="M409.107 17.3423C408.553 17.3242 408.023 17.324 407.486 17.324C322.957 17.3423 244.395 58.7495 196.496 128.326C176.262 157.676 162.999 190.236 150.237 223.416C144.087 239.358 140.15 249.649 134.488 265.761C133.306 269.147 125.382 291.586 125.382 291.586L124.815 292C124.815 292 122.03 291.909 119.111 291.909L118.544 291.519L113.662 278.281C97.3401 234.858 80.6159 193.524 64.3123 150.101C56.444 129.16 48.3744 108.268 40.3598 87.3631C35.8435 75.556 31.4309 63.7123 26.549 52.0696C23.3126 44.3666 20.6309 36.7489 15.2431 30.3917C13.0794 27.8403 10.9097 26.0439 7.84401 24.6129C5.6255 23.5656 3.01693 23.0419 1.20068 23.0419C1.02393 23.0419 0.841081 23.0656 0.658237 23.0663C0.505867 23.0845 0.329119 23.0236 0.207223 22.9079C0.0304735 22.7922 0.0243803 22.64 0.0243803 22.4817C0.0243803 22.4817 0 20.3809 0 18.341C0 18.1765 0.0609473 18.0182 0.170654 17.9086C0.274265 17.8112 0.438826 17.732 0.603385 17.732H74.2286C74.5577 17.732 74.8259 18 74.8259 18.3349L74.8625 22.64C74.8625 22.7922 74.7954 22.9506 74.6796 23.0663C74.5577 23.1819 74.3993 23.2313 74.2469 23.2307H74.1189C72.7598 23.1759 60.6372 23.5108 57.6264 27.5784C56.5719 28.9059 56.1575 30.7997 56.1697 32.9553C56.1514 39.3917 60.0033 47.6183 60.2227 48.2272C60.7896 49.8531 67.0306 66.3794 70.3889 75.4464C77.5259 94.7312 84.6446 114.034 91.7146 133.368C104.66 168.771 117.355 204.235 130.904 239.431C153.04 179.969 176.121 123.083 221.193 76.3902C268.762 27.0852 337.75 0 406.328 0C417.61 0 428.885 0.730716 440.063 2.23477C476.041 7.03923 510.056 18.3227 542.236 35.5067C572.162 51.5276 619.01 79.0799 642 102C643.987 102.974 645 105.5 646.896 107.458C648.651 113.699 648.956 121.08 650.005 127.735C651.291 136.132 652.564 144.475 653.57 152.908C653.57 153.085 653.497 153.243 653.393 153.389C653.29 153.499 653.131 153.584 652.948 153.584C649.194 153.584 646.683 153.335 646.671 153.335L646.159 152.878C645.695 150.881 644.294 145.796 642.807 142.027C638.132 130.128 633 120.501 622.395 113.054C615.971 108.536 606.878 105.984 597.894 106.009C582.937 106.027 568.578 112.95 567.115 129.008C567.048 129.842 566.993 130.682 566.993 131.511C566.957 149.206 584.546 159.655 598.692 168.412C612.18 176.778 626.284 184.908 638.607 195.04C652.04 206.086 660 219.617 660 235.473C660 240.369 659.256 245.508 657.654 250.842C651.163 272.581 629.191 284.711 607.871 286.514C604.952 286.745 602.148 286.848 599.375 286.848C591.037 286.848 582.98 285.898 574.313 284.711L574.068 284.675C567.526 283.708 548.644 280.918 545.442 277.629C544.248 276.198 544.022 272.953 543.723 271.552C540.962 257.06 539.207 242.336 537.141 227.752C537.092 227.587 537.159 227.417 537.275 227.289C537.385 227.173 537.549 227.094 537.738 227.094C540.713 227.094 542.986 227.198 544.046 227.198L544.619 227.594C545.241 229.366 546.113 232.392 547.971 236.74C551.494 245.058 556.242 254.167 562.562 260.512C571.528 269.555 585.863 276.6 599.497 276.6C606.299 276.6 612.881 274.883 618.641 270.809C627.119 264.805 631.653 254.106 631.769 243.98C631.745 243.809 631.769 243.669 631.769 243.59C631.769 231.131 623.065 221.62 613.728 213.953C601.033 203.559 585.631 196.343 571.802 187.392C555.535 176.9 543.157 163.23 542.395 142.8C542.37 142.258 542.37 141.747 542.37 141.247C542.37 120.617 557.357 102.331 577.019 96.7833C583.437 94.9626 588.478 94.1953 594.292 94.1953C596.529 94.1953 598.893 94.3049 601.466 94.512C597.729 90.8097 585.814 79.173 579.085 74.125C562.916 62.0925 547.959 51.4728 529.754 42.8138C491.54 24.6373 451.125 17.6102 409.107 17.3423Z" fill="url(#paint2_linear)"/>
<g clip-path="url(#clip0)">
<path d="M304.565 113H288.434C276.602 113 266.973 122.766 266.973 134.77V189.14C266.973 190.642 268.174 191.86 269.658 191.86H323.342C324.825 191.86 326.026 190.642 326.026 189.14V134.77C326.026 122.766 316.398 113 304.565 113ZM320.658 186.421H272.342V134.77C272.342 125.765 279.561 118.439 288.434 118.439H304.566C313.439 118.438 320.658 125.765 320.658 134.77V186.421Z" fill="white"/>
<path d="M266.974 186.421V204.096C266.974 213.842 274.192 221.772 283.066 221.772H309.935C318.807 221.772 326.027 213.842 326.027 204.096V186.421H266.974ZM320.657 204.096C320.657 210.844 315.847 216.333 309.933 216.333H283.065C277.152 216.333 272.342 210.844 272.342 204.096V191.859H320.657V204.096H320.657Z" fill="white"/>
<path d="M285.763 137.474H272.342C270.859 137.474 269.658 138.691 269.658 140.193C269.658 141.695 270.858 142.912 272.342 142.912H285.763C287.247 142.912 288.447 141.695 288.447 140.193C288.447 138.691 287.247 137.474 285.763 137.474Z" fill="white"/>
<path d="M285.763 148.351H272.342C270.859 148.351 269.658 149.569 269.658 151.071C269.658 152.572 270.858 153.79 272.342 153.79H285.763C287.247 153.79 288.447 152.572 288.447 151.071C288.447 149.568 287.247 148.351 285.763 148.351Z" fill="white"/>
<path d="M320.658 137.474H307.237C305.753 137.474 304.553 138.691 304.553 140.193C304.553 141.695 305.753 142.912 307.237 142.912H320.658C322.141 142.912 323.342 141.695 323.342 140.193C323.342 138.691 322.141 137.474 320.658 137.474Z" fill="white"/>
<path d="M320.658 148.351H307.237C305.753 148.351 304.553 149.569 304.553 151.071C304.553 152.572 305.753 153.79 307.237 153.79H320.658C322.141 153.79 323.342 152.572 323.342 151.071C323.342 149.568 322.141 148.351 320.658 148.351Z" fill="white"/>
<path d="M285.763 159.228H272.342C270.859 159.228 269.658 160.446 269.658 161.947C269.658 163.449 270.858 164.667 272.342 164.667H285.763C287.247 164.667 288.447 163.449 288.447 161.947C288.447 160.446 287.247 159.228 285.763 159.228Z" fill="white"/>
<path d="M320.658 159.228H307.237C305.753 159.228 304.553 160.446 304.553 161.947C304.553 163.449 305.753 164.667 307.237 164.667H320.658C322.141 164.667 323.342 163.449 323.342 161.947C323.342 160.446 322.141 159.228 320.658 159.228Z" fill="white"/>
<path d="M285.763 170.105H272.342C270.859 170.105 269.658 171.323 269.658 172.824C269.658 174.326 270.858 175.544 272.342 175.544H285.763C287.247 175.544 288.447 174.326 288.447 172.824C288.447 171.323 287.247 170.105 285.763 170.105Z" fill="white"/>
<path d="M320.658 170.105H307.237C305.753 170.105 304.553 171.323 304.553 172.824C304.553 174.326 305.753 175.544 307.237 175.544H320.658C322.141 175.544 323.342 174.326 323.342 172.824C323.342 171.323 322.141 170.105 320.658 170.105Z" fill="white"/>
<path d="M336.763 168.256C335.28 168.256 334.079 169.474 334.079 170.976V200.452C334.079 215.206 322.037 227.211 307.234 227.211H285.766C270.963 227.211 258.921 215.206 258.921 200.452V170.976C258.921 169.474 257.721 168.256 256.237 168.256C254.753 168.256 253.552 169.474 253.552 170.976V200.452C253.552 218.206 268.004 232.649 285.766 232.649H307.234C324.996 232.649 339.447 218.206 339.447 200.452V170.976C339.447 169.474 338.247 168.256 336.763 168.256Z" fill="white"/>
<path d="M296.5 230.799C295.017 230.799 293.816 232.017 293.816 233.519V263.431C293.816 264.932 295.016 266.15 296.5 266.15C297.984 266.15 299.184 264.932 299.184 263.431V233.519C299.184 232.017 297.984 230.799 296.5 230.799Z" fill="white"/>
<path d="M317.973 262.562H275.026C273.543 262.562 272.342 263.779 272.342 265.281C272.342 266.783 273.542 268 275.026 268H317.974C319.457 268 320.658 266.783 320.658 265.281C320.658 263.779 319.457 262.562 317.973 262.562Z" fill="white"/>
</g>
<defs>
<linearGradient id="paint0_linear" x1="330" y1="0" x2="330" y2="292" gradientUnits="userSpaceOnUse">
<stop/>
<stop offset="1"/>
</linearGradient>
<linearGradient id="paint1_linear" x1="330" y1="0" x2="330" y2="292" gradientUnits="userSpaceOnUse">
<stop/>
<stop offset="1"/>
</linearGradient>
<linearGradient id="paint2_linear" x1="330" y1="0" x2="330" y2="292" gradientUnits="userSpaceOnUse">
<stop/>
<stop offset="1"/>
</linearGradient>
<clipPath id="clip0">
<rect width="153" height="155" fill="white" transform="translate(220 113)"/>
</clipPath>
</defs>
</svg>
